<?xml version="1.0" encoding="UTF-8"?>
<svg version="1.1" xmlns="http://www.w3.org/2000/svg" width="69" height="78">
<path d="M0 0 C7.68037785 4.19402747 12.25218603 10.29591964 14.8828125 18.57421875 C16.95241665 27.19756936 17.13050784 37.83627778 12.66015625 45.734375 C8.84033433 51.18398761 4.29991126 55.43518583 -2.1171875 57.57421875 C-5.86272587 57.8320468 -9.61371518 57.80561418 -13.3671875 57.82421875 C-14.39199219 57.84484375 -15.41679687 57.86546875 -16.47265625 57.88671875 C-22.47556759 57.91762177 -26.8636144 57.57424843 -32.1171875 54.57421875 C-38.26903358 47.12724718 -37.33353005 38.77271891 -37.35742188 29.59228516 C-37.36709804 27.34499677 -37.39814271 25.09863558 -37.4296875 22.8515625 C-37.56012949 5.46799394 -37.56012949 5.46799394 -32.70019531 -0.02832031 C-23.90013929 -7.79690771 -9.84073753 -4.21918599 0 0 Z " fill="#03060C" transform="translate(45.1171875,12.42578125)"/>
<path d="M0 0 C1.67745682 0.63903117 3.34561387 1.30341637 5 2 C7.70886941 2.16798262 7.70886941 2.16798262 10 2 C10.33 2.66 10.66 3.32 11 4 C9.35 4.33 7.7 4.66 6 5 C6.9075 4.95875 7.815 4.9175 8.75 4.875 C12.01937997 5.00074538 13.20721918 5.51633519 16 7 C17.99110401 7.38290462 19.99100513 7.72604615 22 8 C22.495 9.485 22.495 9.485 23 11 C23.66 11 24.32 11 25 11 C26.78949129 15.42109613 27.2935896 18.36463727 26 23 C25.01 23.495 25.01 23.495 24 24 C23.505 22.515 23.505 22.515 23 21 C22.34 22.32 21.68 23.64 21 25 C20.67 21.7 20.34 18.4 20 15 C17.36 14.67 14.72 14.34 12 14 C12 14.66 12 15.32 12 16 C10.68 16 9.36 16 8 16 C8.020625 15.071875 8.04125 14.14375 8.0625 13.1875 C8.15769604 9.97713989 8.15769604 9.97713989 7 7 C6.34 7 5.68 7 5 7 C5 8.32 5 9.64 5 11 C4.21625 10.835 3.4325 10.67 2.625 10.5 C0.11791961 9.9376293 0.11791961 9.9376293 -2 10 C-2.33 12.31 -2.66 14.62 -3 17 C-1.68 17.66 -0.36 18.32 1 19 C0.67 19.99 0.34 20.98 0 22 C-0.66 22 -1.32 22 -2 22 C-1.938125 23.423125 -1.938125 23.423125 -1.875 24.875 C-2 28 -2 28 -4 30 C-4.6837613 32.88717605 -4.6837613 32.88717605 -5.125 36.125 C-5.29257812 37.22070312 -5.46015625 38.31640625 -5.6328125 39.4453125 C-5.75398438 40.28835937 -5.87515625 41.13140625 -6 42 C-5.01 42.33 -4.02 42.66 -3 43 C-2.67 43.66 -2.34 44.32 -2 45 C-1.24074219 44.84402344 -0.48148438 44.68804687 0.30078125 44.52734375 C1.29464844 44.33269531 2.28851563 44.13804688 3.3125 43.9375 C4.79169922 43.64166016 4.79169922 43.64166016 6.30078125 43.33984375 C9 43 9 43 12 44 C15.47242186 42.95827344 17.66894195 41.75831398 20 39 C20.99373439 36.7396956 20.99373439 36.7396956 21.6875 34.3125 C22.06455078 33.10013672 22.06455078 33.10013672 22.44921875 31.86328125 C22.63097656 31.24839844 22.81273437 30.63351563 23 30 C23.495 31.98 23.495 31.98 24 34 C24.33 33.67 24.66 33.34 25 33 C25 31.865625 25 30.73125 25 29.5625 C25 26 25 26 26 24 C26.66 24 27.32 24 28 24 C28.495 22.515 28.495 22.515 29 21 C29.10901505 23.83439137 29.18777904 26.66450203 29.25 29.5 C29.30027344 30.68722656 29.30027344 30.68722656 29.3515625 31.8984375 C29.46759445 38.97638649 27.47935973 43.97828032 23 49.4375 C19.36506729 52.27729118 15.74642553 52.11602888 11.25 52.0625 C10.26515625 52.05347656 9.2803125 52.04445312 8.265625 52.03515625 C7.51796875 52.02355469 6.7703125 52.01195312 6 52 C6 52.66 6 53.32 6 54 C4.741875 54.020625 3.48375 54.04125 2.1875 54.0625 C1.12595703 54.07990234 1.12595703 54.07990234 0.04296875 54.09765625 C-2.59587414 53.97151653 -4.65126249 53.17436876 -7 52 C-7 51.01 -7 50.02 -7 49 C-7.99 48.67 -8.98 48.34 -10 48 C-9.505 47.505 -9.505 47.505 -9 47 C-9.98226563 46.52626953 -9.98226563 46.52626953 -10.984375 46.04296875 C-13.31191645 43.68385213 -13.30197826 43.16598108 -13.390625 39.98828125 C-13.36408759 38.42920861 -13.31645599 36.87038169 -13.25 35.3125 C-13.23195313 34.51521484 -13.21390625 33.71792969 -13.1953125 32.89648438 C-13.14822247 30.93047551 -13.07647899 28.96508506 -13 27 C-12.34 27 -11.68 27 -11 27 C-10.01 23.535 -10.01 23.535 -9 20 C-9.99 19.67 -10.98 19.34 -12 19 C-12.97483333 13.19052031 -13.34688526 8.58782205 -11 3 C-7.81852818 -0.65280098 -4.63960567 -0.40698295 0 0 Z " fill="#A3EAED" transform="translate(23,10)"/>
<path d="M0 0 C0.66 0 1.32 0 2 0 C2 0.66 2 1.32 2 2 C2.66 2.33 3.32 2.66 4 3 C3.67 4.98 3.34 6.96 3 9 C4.32 9 5.64 9 7 9 C7 8.34 7 7.68 7 7 C9.97 7 12.94 7 16 7 C16 8.98 16 10.96 16 13 C16.99 13.33 17.98 13.66 19 14 C19.33 14.66 19.66 15.32 20 16 C20.92844389 11.66726186 20.92844389 8.33273814 20 4 C23.65560608 7.29004547 25.77952016 10.05855172 26.15673828 15.09106445 C26.19656182 17.50139689 26.17445783 19.90238177 26.125 22.3125 C26.11597656 23.14845703 26.10695312 23.98441406 26.09765625 24.84570312 C26.07420989 26.89725969 26.03834266 28.94866777 26 31 C24.20724134 27.88089144 23.65709282 25.32317572 23.375 21.75 C23.30023438 20.85796875 23.22546875 19.9659375 23.1484375 19.046875 C23.09945312 18.37140625 23.05046875 17.6959375 23 17 C22.34 17 21.68 17 21 17 C20.67 19.97 20.34 22.94 20 26 C20.66 26.33 21.32 26.66 22 27 C20.68 26.67 19.36 26.34 18 26 C17.5875 27.0725 17.175 28.145 16.75 29.25 C15.29168874 32.56984223 14.03600261 34.86659276 11 37 C8.25925984 37.67983203 5.85237604 37.85971921 3 38 C2.67 37.67 2.34 37.34 2 37 C0.30247813 37.25245197 -1.38471545 37.57645775 -3.0625 37.9375 C-3.98160156 38.13214844 -4.90070312 38.32679687 -5.84765625 38.52734375 C-6.55792969 38.68332031 -7.26820312 38.83929688 -8 39 C-8.495 37.515 -8.495 37.515 -9 36 C-9.66 35.67 -10.32 35.34 -11 35 C-11.29883729 27.52906777 -10.15925507 20.36955011 -9 13 C-8.34 13.66 -7.68 14.32 -7 15 C-6.34 14.67 -5.68 14.34 -5 14 C-5.70985103 11.00386865 -5.70985103 11.00386865 -7.625 9.625 C-9 8 -9 8 -8.8125 5.4375 C-8 3 -8 3 -6 1 C-5.01 1.33 -4.02 1.66 -3 2 C-2.01 2 -1.02 2 0 2 C0 1.34 0 0.68 0 0 Z " fill="#060C17" transform="translate(28,17)"/>
<path d="M0 0 C1.67745682 0.63903117 3.34561387 1.30341637 5 2 C7.70886941 2.16798262 7.70886941 2.16798262 10 2 C10.33 2.66 10.66 3.32 11 4 C9.35 4.33 7.7 4.66 6 5 C6.9075 4.95875 7.815 4.9175 8.75 4.875 C12.01937997 5.00074538 13.20721918 5.51633519 16 7 C17.99110401 7.38290462 19.99100513 7.72604615 22 8 C22.495 9.485 22.495 9.485 23 11 C23.66 11 24.32 11 25 11 C26.78949129 15.42109613 27.2935896 18.36463727 26 23 C25.01 23.495 25.01 23.495 24 24 C23.505 22.515 23.505 22.515 23 21 C22.34 22.32 21.68 23.64 21 25 C20.67 21.7 20.34 18.4 20 15 C17.36 14.67 14.72 14.34 12 14 C12 14.66 12 15.32 12 16 C10.68 16 9.36 16 8 16 C8.020625 15.071875 8.04125 14.14375 8.0625 13.1875 C8.15769604 9.97713989 8.15769604 9.97713989 7 7 C6.34 7 5.68 7 5 7 C5 8.32 5 9.64 5 11 C4.21625 10.835 3.4325 10.67 2.625 10.5 C0.11791961 9.9376293 0.11791961 9.9376293 -2 10 C-2.33 10.66 -2.66 11.32 -3 12 C-3.66 12 -4.32 12 -5 12 C-5.33 12.66 -5.66 13.32 -6 14 C-6 12.35 -6 10.7 -6 9 C-7.32 9.33 -8.64 9.66 -10 10 C-10 13.3 -10 16.6 -10 20 C-10.66 19.67 -11.32 19.34 -12 19 C-13.47627224 13.45207367 -13.22900294 8.30714985 -11 3 C-7.81852818 -0.65280098 -4.63960567 -0.40698295 0 0 Z " fill="#75C5CA" transform="translate(23,10)"/>
<path d="M0 0 C0.33 0 0.66 0 1 0 C1.10901505 2.83439137 1.18777904 5.66450203 1.25 8.5 C1.30027344 9.68722656 1.30027344 9.68722656 1.3515625 10.8984375 C1.46759445 17.97638649 -0.52064027 22.97828032 -5 28.4375 C-8.35321428 31.05719866 -11.59228051 31.12364293 -15.75 31.0625 C-16.54921875 31.05347656 -17.3484375 31.04445313 -18.171875 31.03515625 C-18.77515625 31.02355469 -19.3784375 31.01195313 -20 31 C-20.33 29.35 -20.66 27.7 -21 26 C-14.25 25.875 -14.25 25.875 -12 27 C-11.67 26.34 -11.34 25.68 -11 25 C-13.31 25 -15.62 25 -18 25 C-16 23 -16 23 -13.5625 22.0625 C-10.1147924 20.6329627 -8.5051729 19.20368359 -7.05078125 15.73828125 C-6.68533203 14.53751953 -6.68533203 14.53751953 -6.3125 13.3125 C-6.06113281 12.50425781 -5.80976562 11.69601563 -5.55078125 10.86328125 C-5.36902344 10.24839844 -5.18726563 9.63351563 -5 9 C-4.67 10.32 -4.34 11.64 -4 13 C-3.67 12.67 -3.34 12.34 -3 12 C-3 10.865625 -3 9.73125 -3 8.5625 C-3 5 -3 5 -2 3 C-1.34 3 -0.68 3 0 3 C0 2.01 0 1.02 0 0 Z " fill="#7FD4E8" transform="translate(51,31)"/>
<path d="M0 0 C0.99 0 1.98 0 3 0 C3 0.66 3 1.32 3 2 C3.66 2 4.32 2 5 2 C5.33 1.34 5.66 0.68 6 0 C7.8125 0.1875 7.8125 0.1875 10 1 C13 5.17857143 13 5.17857143 13 8 C13.66 8.33 14.32 8.66 15 9 C13.07119658 12.40755272 11.1723491 15.74147635 9 19 C8.4225 18.835 7.845 18.67 7.25 18.5 C4.73335631 17.85537969 4.73335631 17.85537969 1 18 C0.04380267 14.00204108 -0.1039592 10.29196078 -0.0625 6.1875 C-0.05347656 5.02605469 -0.04445313 3.86460938 -0.03515625 2.66796875 C-0.02355469 1.78753906 -0.01195313 0.90710938 0 0 Z " fill="#9BDCE6" transform="translate(27,28)"/>
<path d="M0 0 C0.33 0.33 0.66 0.66 1 1 C3.32817964 1.36760731 5.6618385 1.70241581 8 2 C7.67 2.99 7.34 3.98 7 5 C4.03 4.34 1.06 3.68 -2 3 C-2 3.66 -2 4.32 -2 5 C0.31 5 2.62 5 5 5 C5 5.33 5 5.66 5 6 C3.02 6 1.04 6 -1 6 C-1 6.66 -1 7.32 -1 8 C-1.66 8 -2.32 8 -3 8 C-3 8.66 -3 9.32 -3 10 C-4.258125 10.020625 -5.51625 10.04125 -6.8125 10.0625 C-7.52019531 10.07410156 -8.22789063 10.08570312 -8.95703125 10.09765625 C-12.15839295 9.94462749 -13.73437327 9.26562673 -16 7 C-15 5 -15 5 -12.0625 3.9375 C-11.051875 3.628125 -10.04125 3.31875 -9 3 C-8.34 2.67 -7.68 2.34 -7 2 C-7 1.34 -7 0.68 -7 0 C-2.25 -1.125 -2.25 -1.125 0 0 Z " fill="#72BFD4" transform="translate(32,54)"/>
<path d="M0 0 C4.6875 0.78125 4.6875 0.78125 9.375 1.5625 C10.674375 1.7790625 10.674375 1.7790625 12 2 C12.33 2.99 12.66 3.98 13 5 C13.66 5 14.32 5 15 5 C16.78949129 9.42109613 17.2935896 12.36463727 16 17 C15.34 17.33 14.68 17.66 14 18 C13.67 17.01 13.34 16.02 13 15 C12.34 16.32 11.68 17.64 11 19 C10.67 15.7 10.34 12.4 10 9 C8.35 9 6.7 9 5 9 C4.67 8.34 4.34 7.68 4 7 C4.99 7 5.98 7 7 7 C4.87219421 4.65941363 2.88437779 3.29299694 0 2 C0 1.34 0 0.68 0 0 Z " fill="#B5E7ED" transform="translate(33,16)"/>
<path d="M0 0 C3.65560608 3.29004547 5.77952016 6.05855172 6.15673828 11.09106445 C6.19656182 13.50139689 6.17445783 15.90238177 6.125 18.3125 C6.11597656 19.14845703 6.10695313 19.98441406 6.09765625 20.84570312 C6.07420989 22.89725969 6.03834266 24.94866777 6 27 C4.20724134 23.88089144 3.65709282 21.32317572 3.375 17.75 C3.30023438 16.85796875 3.22546875 15.9659375 3.1484375 15.046875 C3.09945312 14.37140625 3.05046875 13.6959375 3 13 C2.34 13 1.68 13 1 13 C0.67 15.97 0.34 18.94 0 22 C0.66 22.33 1.32 22.66 2 23 C1.01 23 0.02 23 -1 23 C-1.8723412 20.00519083 -2.10829766 17.36424089 -2.0625 14.25 C-2.05347656 13.45078125 -2.04445312 12.6515625 -2.03515625 11.828125 C-2.02355469 11.22484375 -2.01195312 10.6215625 -2 10 C-1.34 10.66 -0.68 11.32 0 12 C0.92844389 7.66726186 0.92844389 4.33273814 0 0 Z " fill="#2A5191" transform="translate(48,21)"/>
<path d="M0 0 C0.33 1.32 0.66 2.64 1 4 C1.33 3.34 1.66 2.68 2 2 C2.99 2 3.98 2 5 2 C4.67 3.32 4.34 4.64 4 6 C3.34 6 2.68 6 2 6 C2.66 6.33 3.32 6.66 4 7 C3.49477778 11.37859255 0.82172778 13.81651224 -2 17 C-6.455 16.01 -6.455 16.01 -11 15 C-9.68 14.34 -8.36 13.68 -7 13 C-2.52272642 9.60812608 -1.46637047 5.19894983 0 0 Z " fill="#72C0C6" transform="translate(46,40)"/>
<path d="M0 0 C1.01941403 3.68168538 1.32896445 7.27653786 1.62109375 11.07421875 C1.74613281 11.70972656 1.87117187 12.34523438 2 13 C2.66 13.33 3.32 13.66 4 14 C3.34 21.59 2.68 29.18 2 37 C1.67 37 1.34 37 1 37 C0.67 33.37 0.34 29.74 0 26 C-0.33 26 -0.66 26 -1 26 C-1.22328552 22.97961078 -1.42901467 19.95968289 -1.625 16.9375 C-1.68945312 16.08994141 -1.75390625 15.24238281 -1.8203125 14.36914062 C-2.14768288 9.06983265 -1.78150476 5.01133209 0 0 Z " fill="#050915" transform="translate(10,16)"/>
<path d="M0 0 C0.33 1.32 0.66 2.64 1 4 C-0.093125 3.9175 -1.18625 3.835 -2.3125 3.75 C-5.94584407 3.59913143 -5.94584407 3.59913143 -7.6875 5.625 C-9.32570318 8.58936766 -9.50434136 10.87988104 -9.6875 14.25 C-9.78611328 15.86648437 -9.78611328 15.86648437 -9.88671875 17.515625 C-9.92410156 18.33546875 -9.96148437 19.1553125 -10 20 C-10.66 19.67 -11.32 19.34 -12 19 C-13.47627224 13.45207367 -13.22900294 8.30714985 -11 3 C-7.8156858 -0.65606445 -4.63433898 -0.26736571 0 0 Z " fill="#274E71" transform="translate(23,10)"/>
<path d="M0 0 C1.32 0 2.64 0 4 0 C4 0.66 4 1.32 4 2 C5.32 2.66 6.64 3.32 8 4 C7.67 4.99 7.34 5.98 7 7 C6.34 7 5.68 7 5 7 C5.061875 8.423125 5.061875 8.423125 5.125 9.875 C5 13 5 13 3 15 C2.34 16.32 1.68 17.64 1 19 C0.34 14.71 -0.32 10.42 -1 6 C-0.34 6.66 0.32 7.32 1 8 C1 6.35 1 4.7 1 3 C0.01 3.33 -0.98 3.66 -2 4 C-1.34 2.68 -0.68 1.36 0 0 Z " fill="#4B88AE" transform="translate(16,25)"/>
<path d="M0 0 C0.33 0 0.66 0 1 0 C1.48828125 1.98567708 1.9765625 3.97135417 2.46484375 5.95703125 C2.91010705 7.65683202 3.44433985 9.33301954 4 11 C4.03954234 13.33299825 4.04401732 15.66708189 4 18 C3.34 18.33 2.68 18.66 2 19 C1.67 16.03 1.34 13.06 1 10 C0.67 13.63 0.34 17.26 0 21 C-0.99 21 -1.98 21 -3 21 C-3 15.39 -3 9.78 -3 4 C-2.34 4 -1.68 4 -1 4 C-0.67 2.68 -0.34 1.36 0 0 Z " fill="#4A949E" transform="translate(13,33)"/>
<path d="M0 0 C2.5 1.375 2.5 1.375 5 3 C5 3.66 5 4.32 5 5 C5.66 5.33 6.32 5.66 7 6 C6.01 7.485 6.01 7.485 5 9 C4.01 8.01 3.02 7.02 2 6 C1.855625 6.61875 1.71125 7.2375 1.5625 7.875 C1 10 1 10 0 12 C-0.99 12 -1.98 12 -3 12 C-4.25 5.375 -4.25 5.375 -2 2 C-1.67 3.32 -1.34 4.64 -1 6 C-0.67 4.02 -0.34 2.04 0 0 Z " fill="#4A9AA9" transform="translate(35,31)"/>
<path d="M0 0 C0.33 0 0.66 0 1 0 C1 1.98 1 3.96 1 6 C2.65 6.33 4.3 6.66 6 7 C6.66 5.02 7.32 3.04 8 1 C8.66 1 9.32 1 10 1 C9.25 7.625 9.25 7.625 7 11 C6.4225 10.835 5.845 10.67 5.25 10.5 C2.73335631 9.85537969 2.73335631 9.85537969 -1 10 C-2.15837626 5.94568308 -1.83691257 3.78187881 0 0 Z " fill="#53A3CD" transform="translate(29,36)"/>
<path d="M0 0 C2.97 0.99 5.94 1.98 9 3 C9 3.66 9 4.32 9 5 C9.61875 5.0825 10.2375 5.165 10.875 5.25 C13 6 13 6 14.25 8.0625 C14.4975 8.701875 14.745 9.34125 15 10 C14.01 11.485 14.01 11.485 13 13 C12 12 12 12 11.9375 9.4375 C11.958125 8.633125 11.97875 7.82875 12 7 C11.0925 7.04125 10.185 7.0825 9.25 7.125 C6 7 6 7 4.0625 6 C1.84775872 4.74096261 1.84775872 4.74096261 -1.5625 5 C-5 5 -5 5 -8 3 C-5.36 2.67 -2.72 2.34 0 2 C0 1.34 0 0.68 0 0 Z " fill="#22506B" transform="translate(33,11)"/>
<path d="M0 0 C0.33 0 0.66 0 1 0 C2.25981943 8.6612586 2.09020653 17.27001243 2 26 C-1.953125 22.421875 -1.953125 22.421875 -2.375 18.625 C-2.06627196 12.37919433 -0.97060514 6.17027553 0 0 Z " fill="#1D3658" transform="translate(19,30)"/>
<path d="M0 0 C0.33 0 0.66 0 1 0 C1 5.94 1 11.88 1 18 C0.67 17.34 0.34 16.68 0 16 C-2.02463255 15.34786708 -2.02463255 15.34786708 -4 15 C-3.01 14.67 -2.02 14.34 -1 14 C-0.67 13.01 -0.34 12.02 0 11 C-0.99 11 -1.98 11 -3 11 C-3.125 5.25 -3.125 5.25 -2 3 C-1.34 3 -0.68 3 0 3 C0 2.01 0 1.02 0 0 Z " fill="#77D7E3" transform="translate(51,31)"/>
<path d="M0 0 C2.9375 0.8125 2.9375 0.8125 6 2 C6.33 2.99 6.66 3.98 7 5 C5.35 5.33 3.7 5.66 2 6 C2 6.66 2 7.32 2 8 C0.68 8 -0.64 8 -2 8 C-2.125 5.125 -2.125 5.125 -2 2 C-1.34 1.34 -0.68 0.68 0 0 Z " fill="#447DA4" transform="translate(33,18)"/>
<path d="M0 0 C0.928125 0.7425 0.928125 0.7425 1.875 1.5 C3.83880904 3.19222773 3.83880904 3.19222773 6 3 C5.625 5.9375 5.625 5.9375 5 9 C4.01 9.495 4.01 9.495 3 10 C2.67 9.01 2.34 8.02 2 7 C1.34 8.32 0.68 9.64 0 11 C-0.19406478 9.35492782 -0.38007935 7.70890406 -0.5625 6.0625 C-0.66691406 5.14597656 -0.77132812 4.22945312 -0.87890625 3.28515625 C-0.91886719 2.53105469 -0.95882812 1.77695312 -1 1 C-0.67 0.67 -0.34 0.34 0 0 Z " fill="#6AB6C7" transform="translate(44,24)"/>
<path d="M0 0 C0.88945312 0.07863281 1.77890625 0.15726563 2.6953125 0.23828125 C3.77425781 0.46064453 3.77425781 0.46064453 4.875 0.6875 C5.205 1.3475 5.535 2.0075 5.875 2.6875 C3.895 3.0175 1.915 3.3475 -0.125 3.6875 C-0.125 4.0175 -0.125 4.3475 -0.125 4.6875 C-2.765 4.3575 -5.405 4.0275 -8.125 3.6875 C-8.125 2.6975 -8.125 1.7075 -8.125 0.6875 C-4.98117176 -0.36044275 -3.25296561 -0.31770947 0 0 Z " fill="#93DEEA" transform="translate(28.125,11.3125)"/>
<path d="M0 0 C0.99 0.33 1.98 0.66 3 1 C3.6875 3.0625 3.6875 3.0625 4 5 C3.44828125 4.85691406 2.8965625 4.71382812 2.328125 4.56640625 C-0.18714769 3.9544691 -2.71042508 3.43873189 -5.25 2.9375 C-6.14203125 2.76089844 -7.0340625 2.58429687 -7.953125 2.40234375 C-8.62859375 2.26957031 -9.3040625 2.13679687 -10 2 C-6.31884463 -0.45410358 -4.34706402 -0.23287843 0 0 Z " fill="#0E1B31" transform="translate(27,8)"/>
<path d="M0 0 C0.33 0.33 0.66 0.66 1 1 C3.32817964 1.36760731 5.6618385 1.70241581 8 2 C7.67 2.99 7.34 3.98 7 5 C2.545 4.01 2.545 4.01 -2 3 C-2.33 3.66 -2.66 4.32 -3 5 C-3 4.01 -3 3.02 -3 2 C-4.32 2 -5.64 2 -7 2 C-7 1.34 -7 0.68 -7 0 C-2.25 -1.125 -2.25 -1.125 0 0 Z " fill="#5AA3BE" transform="translate(32,54)"/>
<path d="M0 0 C0.33 0 0.66 0 1 0 C1 1.98 1 3.96 1 6 C0.34 6 -0.32 6 -1 6 C-1.33 8.97 -1.66 11.94 -2 15 C-1.34 15.33 -0.68 15.66 0 16 C-0.99 16 -1.98 16 -3 16 C-3.8723412 13.00519083 -4.10829766 10.36424089 -4.0625 7.25 C-4.05347656 6.45078125 -4.04445312 5.6515625 -4.03515625 4.828125 C-4.02355469 4.22484375 -4.01195312 3.6215625 -4 3 C-3.34 3.66 -2.68 4.32 -2 5 C-1.34 3.35 -0.68 1.7 0 0 Z " fill="#328089" transform="translate(50,28)"/>
<path d="M0 0 C2.97 0 5.94 0 9 0 C8.67 0.66 8.34 1.32 8 2 C5.6954948 2.63817067 3.38503677 3.02037323 1.03125 3.4375 C0.02578125 3.7159375 0.02578125 3.7159375 -1 4 C-1.33 4.66 -1.66 5.32 -2 6 C-2.99 6 -3.98 6 -5 6 C-5 5.01 -5 4.02 -5 3 C-3.35 2.67 -1.7 2.34 0 2 C0 1.34 0 0.68 0 0 Z " fill="#203A55" transform="translate(35,24)"/>
<path d="M0 0 C0 0.99 0 1.98 0 3 C-2.64 3.33 -5.28 3.66 -8 4 C-8 4.66 -8 5.32 -8 6 C-9.32 5.34 -10.64 4.68 -12 4 C-11 2 -11 2 -8.25 0.875 C-5.29813104 0.08026605 -3.02780163 -0.17810598 0 0 Z " fill="#4197A3" transform="translate(28,57)"/>
<path d="M0 0 C2 3 2 3 2 6 C0.35 6.66 -1.3 7.32 -3 8 C-4 7 -4 7 -4.0625 3.9375 C-4.041875 2.968125 -4.02125 1.99875 -4 1 C-2 0 -2 0 0 0 Z " fill="#91E1E5" transform="translate(17,19)"/>
<path d="M0 0 C-0.33 0.66 -0.66 1.32 -1 2 C-5.29 2 -9.58 2 -14 2 C-14 1.34 -14 0.68 -14 0 C-12.2300132 -0.19532961 -10.45895721 -0.38098882 -8.6875 -0.5625 C-7.70136719 -0.66691406 -6.71523438 -0.77132812 -5.69921875 -0.87890625 C-3 -1 -3 -1 0 0 Z " fill="#1A3569" transform="translate(43,62)"/>
<path d="M0 0 C0.33 0 0.66 0 1 0 C0.73781251 4.4571874 0.42288711 6.51522698 -2.5625 9.9375 C-3.366875 10.618125 -4.17125 11.29875 -5 12 C-5.66 11.34 -6.32 10.68 -7 10 C-6.57847656 9.52949219 -6.15695313 9.05898438 -5.72265625 8.57421875 C-5.17480469 7.95160156 -4.62695312 7.32898437 -4.0625 6.6875 C-3.51722656 6.07261719 -2.97195312 5.45773438 -2.41015625 4.82421875 C-0.79918441 2.94758042 -0.79918441 2.94758042 0 0 Z " fill="#B4E9EF" transform="translate(50,47)"/>
<path d="M0 0 C0.33 1.32 0.66 2.64 1 4 C1.33 3.34 1.66 2.68 2 2 C2.99 2 3.98 2 5 2 C4.67 3.32 4.34 4.64 4 6 C3.34 6 2.68 6 2 6 C2.66 6.33 3.32 6.66 4 7 C3.67 7.66 3.34 8.32 3 9 C1.35 8.67 -0.3 8.34 -2 8 C-1.34 5.36 -0.68 2.72 0 0 Z " fill="#489EBF" transform="translate(46,40)"/>
<path d="M0 0 C0.33 0 0.66 0 1 0 C1.22134176 2.12368444 1.42670007 4.24904024 1.625 6.375 C1.74101562 7.55835938 1.85703125 8.74171875 1.9765625 9.9609375 C1.98429688 10.96382812 1.99203125 11.96671875 2 13 C1.34 13.66 0.68 14.32 0 15 C-1 14 -1 14 -1.1328125 11.09375 C-1.13023437 9.9078125 -1.12765625 8.721875 -1.125 7.5 C-1.12757813 6.3140625 -1.13015625 5.128125 -1.1328125 3.90625 C-1 1 -1 1 0 0 Z " fill="#000001" transform="translate(9,42)"/>
<path d="M0 0 C6.52307692 -0.36923077 6.52307692 -0.36923077 8.9375 1.5 C9.288125 1.995 9.63875 2.49 10 3 C7.95301586 5.04698414 3.69588759 4.70045693 1 5 C0.67 3.35 0.34 1.7 0 0 Z " fill="#AFEFEF" transform="translate(30,57)"/>
<path d="M0 0 C0.33 0 0.66 0 1 0 C1.05437607 1.58294782 1.09296271 3.16644256 1.125 4.75 C1.14820313 5.63171875 1.17140625 6.5134375 1.1953125 7.421875 C1 10 1 10 -1 14 C-1.66 9.71 -2.32 5.42 -3 1 C-2.34 1.66 -1.68 2.32 -1 3 C-0.67 2.01 -0.34 1.02 0 0 Z " fill="#3B8C95" transform="translate(18,30)"/>
<path d="M0 0 C1.90608098 3.21182149 2.22266247 5.53882603 2.125 9.25 C2.10695313 10.14203125 2.08890625 11.0340625 2.0703125 11.953125 C2.04710937 12.62859375 2.02390625 13.3040625 2 14 C1.34 13.67 0.68 13.34 0 13 C-0.44921875 11.07421875 -0.44921875 11.07421875 -0.6875 8.6875 C-0.77386719 7.90761719 -0.86023437 7.12773437 -0.94921875 6.32421875 C-0.99984424 4.00712895 -0.67173402 2.20712606 0 0 Z " fill="#4294E1" transform="translate(11,16)"/>
<path d="M0 0 C0.66 0 1.32 0 2 0 C1.67 2.31 1.34 4.62 1 7 C-0.65 7.33 -2.3 7.66 -4 8 C-4 7.34 -4 6.68 -4 6 C-3.34 6 -2.68 6 -2 6 C-1.34 4.02 -0.68 2.04 0 0 Z " fill="#B1EAF1" transform="translate(37,37)"/>
<path d="M0 0 C1.32 0 2.64 0 4 0 C4 3.3 4 6.6 4 10 C3.34 10 2.68 10 2 10 C0 8 0 8 -0.1953125 6.0546875 C-0.13020833 4.03645833 -0.06510417 2.01822917 0 0 Z " fill="#AFEDF2" transform="translate(28,32)"/>
<path d="M0 0 C0.33 0 0.66 0 1 0 C1.12375 0.969375 1.2475 1.93875 1.375 2.9375 C1.58125 3.948125 1.7875 4.95875 2 6 C2.66 6.33 3.32 6.66 4 7 C3.67 9.31 3.34 11.62 3 14 C-0.2102122 10.7897878 0.01025241 7.62539686 -0.0625 3.1875 C-0.041875 2.135625 -0.02125 1.08375 0 0 Z " fill="#213F6E" transform="translate(10,23)"/>
<path d="M0 0 C0.99 0.33 1.98 0.66 3 1 C2.34 2.65 1.68 4.3 1 6 C0.34 6 -0.32 6 -1 6 C-1.33 6.66 -1.66 7.32 -2 8 C-2.125 5.125 -2.125 5.125 -2 2 C-1.34 1.34 -0.68 0.68 0 0 Z " fill="#366B87" transform="translate(19,16)"/>
<path d="M0 0 C1.134375 0.020625 2.26875 0.04125 3.4375 0.0625 C3.7675 1.3825 4.0975 2.7025 4.4375 4.0625 C-2.3125 3.3125 -2.3125 3.3125 -4.5625 1.0625 C-3.5625 0.0625 -3.5625 0.0625 0 0 Z " fill="#4C849A" transform="translate(19.5625,9.9375)"/>
<path d="M0 0 C0.99 0 1.98 0 3 0 C3 0.66 3 1.32 3 2 C3.66 2 4.32 2 5 2 C5.33 1.34 5.66 0.68 6 0 C6.33 0.99 6.66 1.98 7 3 C6.01 3.99 5.02 4.98 4 6 C3.67 5.34 3.34 4.68 3 4 C2.34 4 1.68 4 1 4 C0.67 2.68 0.34 1.36 0 0 Z " fill="#71C5D1" transform="translate(27,28)"/>
<path d="M0 0 C1.32 0 2.64 0 4 0 C4 0.99 4 1.98 4 3 C4.66 3.33 5.32 3.66 6 4 C4.02 4.33 2.04 4.66 0 5 C0 3.35 0 1.7 0 0 Z " fill="#4DA8B8" transform="translate(16,53)"/>
<path d="M0 0 C1.4540625 0.0309375 1.4540625 0.0309375 2.9375 0.0625 C1.9475 0.5575 1.9475 0.5575 0.9375 1.0625 C0.9375 2.0525 0.9375 3.0425 0.9375 4.0625 C-0.0525 4.0625 -1.0425 4.0625 -2.0625 4.0625 C-2.0625 3.4025 -2.0625 2.7425 -2.0625 2.0625 C-2.7225 1.7325 -3.3825 1.4025 -4.0625 1.0625 C-3.0625 0.0625 -3.0625 0.0625 0 0 Z " fill="#82D7DB" transform="translate(32.0625,14.9375)"/>
</svg>
